<?xml version="1.0" encoding="UTF-8"?>
<svg width="48px" height="48px" viewBox="0 0 48 48" version="1.1" xmlns="http://www.w3.org/2000/svg" xmlns:xlink="http://www.w3.org/1999/xlink">
    <title>Icons / 1. Brand / Lined (32px) / 3. Generic / Phone Copy</title>
    <g id="Components---Footer" stroke="none" stroke-width="1" fill="none" fill-rule="evenodd">
        <g id="Web-Component---Footer" transform="translate(-64.000000, -362.000000)" fill="#004165" fill-rule="nonzero">
            <g id="Icons-/-1.-Brand-/-Lined-(32px)-/-3.-Generic-/-Phone-Copy" transform="translate(64.000000, 362.000000)">
                <path d="M10.5106696,7.98525151 L8.49398183,10.0049394 C6.49080698,12.0081139 6.17708145,15.1327394 7.74070466,17.4961962 C13.6609055,26.4454074 21.5559807,34.3408725 30.5034553,40.258923 C32.8644579,41.8197604 35.9995475,41.5069095 37.9967638,39.5079773 L40.0142332,37.489008 C41.6630272,35.8420383 41.6630272,33.1692117 40.0137426,31.5217515 L36.3345362,27.8425449 L36.1236508,27.6450037 C34.4680487,26.1963683 31.9459455,26.2622271 30.3670826,27.8428385 L29.6235,28.584 L29.2266638,28.2539974 C25.8638704,25.4074801 22.6010457,22.1434516 19.7499703,18.7746687 L19.416,18.375 L20.1585362,17.6337051 C21.8058805,15.9845366 21.8058805,13.3123892 20.1585362,11.6650449 L16.4790362,7.98554491 C14.8316918,6.3382006 12.1595444,6.3382006 10.5106696,7.98525151 Z M15.418376,9.04620509 L19.097876,12.7257051 C20.1595317,13.7873608 20.1595317,15.5102134 19.0975826,16.5733385 L17.872376,17.7985449 C17.5997785,18.0711424 17.5782395,18.5060014 17.8225649,18.8042025 C21.163217,22.8814957 25.1260293,26.8458727 29.1953785,30.1800161 C29.4935797,30.4243415 29.9284386,30.4028026 30.2010362,30.1302051 L31.4280362,28.9032051 C32.4898204,27.8402452 34.2132671,27.8402452 35.273289,28.9026175 L38.953376,32.5827051 C40.0163849,33.6445383 40.0163849,35.3667117 38.9536696,36.4282515 L36.9356789,38.447742 C35.4430562,39.9416471 33.0975496,40.1757054 31.330813,39.0077319 C22.5517202,33.2010527 14.8006836,25.4496333 8.99172185,16.6685755 C7.82137262,14.8995625 8.0558318,12.5644094 9.55503616,11.0652051 L11.5714303,9.04581064 C12.6338677,7.9845494 14.3567203,7.9845494 15.418376,9.04620509 Z" id="Stroke-2"></path>
            </g>
        </g>
    </g>
</svg>