<?xml version="1.0" encoding="UTF-8"?>
<svg width="65px" height="52px" viewBox="0 0 65 52" version="1.1" xmlns="http://www.w3.org/2000/svg" xmlns:xlink="http://www.w3.org/1999/xlink">
    <title>design-own-card-diy</title>
    <g id="Page-1" stroke="none" stroke-width="1" fill="none" fill-rule="evenodd" stroke-linecap="round" stroke-linejoin="round">
        <g id="design-own-card-diy" transform="translate(1.000000, 1.000000)" stroke-width="1.5">
            <path d="M19.5009689,24.0842619 L44.7566467,24.0842619 C46.9605579,24.0842619 48.7471809,25.8708849 48.7471809,28.0747961 L48.7471809,45.5070104 C48.7471809,47.7109216 46.9605579,49.4975446 44.7566467,49.4975446 L10.7157518,49.4975446 C8.51184059,49.4975446 6.72521759,47.7109216 6.72521759,45.5070104 L6.72521759,28.0747961" id="Path" stroke="#7A99AC"></path>
            <line x1="6.72521759" y1="31.3514611" x2="48.7471809" y2="31.3514611" id="Path" stroke="#7A99AC"></line>
            <line x1="12.3663196" y1="36.7909021" x2="26.6689741" y2="36.7909021" id="Path" stroke="#7A99AC"></line>
            <line x1="37.7512251" y1="36.7909021" x2="43.4110587" y2="36.7909021" id="Path" stroke="#7A99AC"></line>
            <line x1="12.3663196" y1="40.4174994" x2="17.8059435" y2="40.4174994" id="Path" stroke="#7A99AC"></line>
            <path d="M16.9833374,16.2685421 L22.1513397,2.62853878 C22.5544291,1.60481725 23.3476809,0.783151367 24.3565886,0.34429829 C25.3654963,-0.0945547859 26.5074155,-0.114646481 27.5311369,0.288443151 L60.4580516,13.2534004 C62.5898404,14.0927915 63.6375359,16.5014087 62.798145,18.6331976 L56.1588342,35.4949467 C55.3194431,37.6267355 52.9108259,38.674431 50.779037,37.8350401" id="Path" stroke="#7A99AC"></path>
            <line x1="20.9033758" y1="5.79797858" x2="61.5501811" y2="21.8026374" id="Path" stroke="#7A99AC"></line>
            <line x1="49.6061174" y1="23.2540883" x2="55.0807338" y2="25.4097161" id="Path" stroke="#7A99AC"></line>
            <path d="M9.80306447,24.8479176 L15.3442591,28.3016881 L15.9735989,21.8036274 L6.37601442,2.35111784 C5.89501935,1.37739323 4.71603621,0.97754175 3.74193358,1.45777078 L1.09617591,2.76302401 C0.122912662,3.24418839 -0.276773372,4.42268505 0.202987158,5.39664108 L9.80306447,24.8479176 Z" id="Path" stroke="#007DBA"></path>
            <line x1="9.64753554" y1="24.5351117" x2="15.819633" y2="21.489274" id="Path" stroke="#007DBA"></line>
            <line x1="0.635444265" y1="6.27989216" x2="6.81102896" y2="3.23264092" id="Path" stroke="#007DBA"></line>
            <line x1="1.51312784" y1="8.05921943" x2="7.68096218" y2="4.99626011" id="Path" stroke="#007DBA"></line>
        </g>
    </g>
</svg>