<?xml version="1.0" encoding="utf-8"?>
<!-- Generator: Adobe Illustrator 22.1.0, SVG Export Plug-In . SVG Version: 6.00 Build 0)  -->
<svg version="1.1" id="Layer_1" xmlns="http://www.w3.org/2000/svg" xmlns:xlink="http://www.w3.org/1999/xlink" x="0px" y="0px"
	 width="48px" height="48px" viewBox="0 0 48 48" style="enable-background:new 0 0 48 48;" xml:space="preserve">
<style type="text/css">
	.st0{fill:#004165;}
</style>
<title>Icons/Lined (48px)/2. Banking &amp; Processes/Find visit ANZ Copy</title>
<g id="Components---Footer">
	<g id="Web-Component---Footer" transform="translate(-488.000000, -362.000000)">
		
			<g id="Icons-_x2F_-1.-Brand-_x2F_-Lined-_x28_32px_x29_-_x2F_-2.-Banking-_x26_-Processes-_x2F_-Find-visit-ANZ" transform="translate(488.000000, 362.000000)">
			<path id="Combined-Shape" class="st0" d="M24.2,3.1l0.4,0c8.2,0.2,14.7,6.9,14.7,15.2c0,2.8-1.4,6.5-3.8,10.9
				c-1,1.8-2.2,3.7-3.5,5.7c-1.6,2.4-3.3,4.7-5,6.9l-0.7,0.9c-0.3,0.4-0.7,0.8-0.9,1.2l-0.6,0.8c-0.3,0.4-0.9,0.4-1.2,0L23,43.9
				l-0.6-0.8c-0.3-0.4-0.7-0.8-1-1.3c-1.7-2.2-3.4-4.6-5-6.9c-1.3-2-2.5-3.9-3.5-5.7c-2.5-4.4-3.8-8.1-3.8-10.9
				c0-8.2,6.6-14.9,14.7-15.2L24.2,3.1z M24.2,4.6l-0.4,0c-7.4,0.2-13.3,6.2-13.3,13.7c0,2.5,1.3,6,3.6,10.2c1,1.8,2.1,3.7,3.4,5.6
				c1.6,2.4,3.2,4.7,4.9,6.9l0.7,0.9c0.2,0.3,0.4,0.6,0.6,0.8l0.3,0.4l0.6-0.8l1-1.3c1.7-2.2,3.4-4.5,4.9-6.9
				c1.3-1.9,2.4-3.8,3.4-5.6c2.3-4.2,3.6-7.7,3.6-10.2c0-7.4-5.9-13.5-13.2-13.7L24.2,4.6z"/>
		</g>
	</g>
</g>
</svg>
