<?xml version="1.0" encoding="UTF-8"?>
<svg width="48px" height="48px" viewBox="0 0 48 48" version="1.1" xmlns="http://www.w3.org/2000/svg" xmlns:xlink="http://www.w3.org/1999/xlink">
    <title>Icons / 1. Brand / Lined (32px) / 3. Generic / Feedback Copy</title>
    <g id="Components---Footer" stroke="none" stroke-width="1" fill="none" fill-rule="evenodd">
        <g id="Web-Component---Footer" transform="translate(-912.000000, -362.000000)" fill="#004165" fill-rule="nonzero">
            <g id="Icons-/-1.-Brand-/-Lined-(32px)-/-3.-Generic-/-Feedback-Copy" transform="translate(912.000000, 362.000000)">
                <path d="M39.819,24.2025 C42.5191064,24.2025 44.7240254,26.3174154 44.8680199,28.9815093 L44.8755,29.259 L44.8755,32.7045 C44.8755,35.4046064 42.7605846,37.6095254 40.0964907,37.7535199 L39.819,37.761 L37.9845,37.7595 L37.9845,42.18 C37.9845,42.8036334 37.2807673,43.1367046 36.8027977,42.7942038 L36.7041699,42.7103301 L31.7535,37.7595 L27.759,37.761 C25.0588936,37.761 22.8539746,35.6460846 22.7099801,32.9819907 L22.7025,32.7045 C22.7025,32.2902864 23.0382864,31.9545 23.4525,31.9545 C23.8667136,31.9545 24.2025,32.2902864 24.2025,32.7045 C24.2025,34.5874203 25.6643342,36.1277095 27.5154329,36.252798 L27.759,36.261 L32.0655,36.261 C32.2246299,36.261 32.3785458,36.3115713 32.5057609,36.4038138 L32.5958301,36.4806699 L36.4845,40.3695 L36.4845,37.011 C36.4845,36.6428102 36.7498127,36.3365874 37.0996866,36.2730835 L37.2345,36.261 L39.819,36.261 C41.7019203,36.261 43.2422095,34.7991658 43.367298,32.9480671 L43.3755,32.7045 L43.3755,29.259 C43.3755,27.2942136 41.7837864,25.7025 39.819,25.7025 C39.4047864,25.7025 39.069,25.3667136 39.069,24.9525 C39.069,24.5382864 39.4047864,24.2025 39.819,24.2025 Z M28.62,5.25 C32.8397136,5.25 36.2625,8.67278644 36.2625,12.8925 L36.2625,12.8925 L36.2625,19.782 C36.2625,24.0037281 32.8406994,27.4245 28.62,27.4245 L28.62,27.4245 L21.153,27.423 L13.6127325,34.1260929 C13.1612905,34.5273164 12.465191,34.2549563 12.3743842,33.6907331 L12.3743842,33.6907331 L12.3645,33.5655 L12.363,27.423 L11.3925,27.4245 C7.28002366,27.4245 3.9260022,24.1769032 3.7567049,20.1051244 L3.7567049,20.1051244 L3.75,19.782 L3.75,12.8925 C3.75,8.67278644 7.17278644,5.25 11.3925,5.25 L11.3925,5.25 Z M28.62,6.75 L11.3925,6.75 C8.00121356,6.75 5.25,9.50121356 5.25,12.8925 L5.25,12.8925 L5.25,19.782 C5.25,23.1752 8.00012678,25.9245 11.3925,25.9245 L11.3925,25.9245 L13.1145,25.9245 C13.5287136,25.9245 13.8645,26.2602864 13.8645,26.6745 L13.8645,26.6745 L13.863,31.896 L20.3697675,26.1139071 C20.4727299,26.0223982 20.5981918,25.9616112 20.7319721,25.9369369 L20.7319721,25.9369369 L20.868,25.9245 L28.62,25.9245 C32.0123732,25.9245 34.7625,23.1752 34.7625,19.782 L34.7625,19.782 L34.7625,12.8925 C34.7625,9.50121356 32.0112864,6.75 28.62,6.75 L28.62,6.75 Z" id="Combined-Shape"></path>
            </g>
        </g>
    </g>
</svg>