<svg height="30" viewBox="0 0 30 30" width="30" xmlns="http://www.w3.org/2000/svg"><g><path d="m14.9999702 0c-4.0737256 0-4.5846011.01726735-6.18445102.09026657-1.59663464.07282059-2.68697863.3264125-3.6411487.69724378-.98632307.38327567-1.82289651.89617557-2.65679053 1.7300696-.83395357.83395357-1.34679393 1.67046746-1.73012915 2.65679053-.37083127.95417007-.62436364 2.04451406-.69724377 3.6411487-.07299922 1.59990952-.09020703 2.11066582-.09020703 6.18445102 0 4.0737851.01720781 4.5846012.09020703 6.1845106.07288013 1.5965751.3264125 2.6869786.69724377 3.6410892.38333522.986323.89617558 1.8228965 1.73012915 2.6567905.83389402.8339535 1.67046746 1.346794 2.65679053 1.7301887.95417007.3707718 2.04451406.6243636 3.6411487.6972438 1.59984992.0729396 2.11072542.090207 6.18445102.090207 4.0737851 0 4.5845416-.0172674 6.184451-.090207 1.5966347-.0728802 2.6869787-.326472 3.6411488-.6972438.9863826-.3833947 1.8228965-.8962352 2.6567905-1.7301887.8339535-.833894 1.346794-1.6704079 1.7301291-2.6567905.3708314-.9541106.6244232-2.0445141.6972438-3.6410892.0729992-1.5999094.0902666-2.1107255.0902666-6.1845106 0-4.0737256-.0172674-4.5845415-.0902666-6.18445102-.0728206-1.59663464-.3264124-2.68697863-.6972438-3.6411487-.3833351-.98632307-.8961756-1.82283696-1.7301291-2.65679053-.833894-.83389403-1.6704079-1.34679393-2.6567905-1.7300696-.9541701-.37083128-2.0445141-.62442319-3.6411488-.69724378-1.5999094-.07299922-2.1106659-.09026657-6.184451-.09026657m0 2.70269787c4.0051921 0 4.479568.01524291 6.0612574.08740854 1.4624853.06674724 2.2567239.31111005 2.7852835.51653199.7001613.27210966 1.1999024.59715267 1.7247702 1.12202064.524868.52492751.8499111 1.02460896 1.1220803 1.72477032.2053624.52855961.4497252 1.32279826.5164725 2.78528345.072106 1.58168949.0874084 2.05612489.0874084 6.06125739 0 4.0051921-.0153024 4.4796276-.0874084 6.0612574-.0667473 1.4625449-.3111101 2.2567835-.5164725 2.7853431-.2721692.7001018-.5972123 1.1998428-1.1220803 1.7247106-.5248678.5249276-1.0246089.8499707-1.7247702 1.1220803-.5285596.2053625-1.3227982.4497848-2.7852835.5164725-1.5814512.0721656-2.0557676.087468-6.0612574.087468s-4.4798061-.0153024-6.0612574-.087468c-1.46248518-.0666877-2.25678339-.31111-2.78534299-.5164725-.70010181-.2721096-1.1998428-.5971527-1.72471077-1.1220803-.52486797-.5248678-.84997053-1.0246088-1.12208018-1.7247106-.2053624-.5285596-.44972521-1.3227982-.51647245-2.7852835-.07216563-1.5816894-.08740854-2.0561249-.08740854-6.061317 0-4.0051325.01524291-4.4795679.08740854-6.06125739.06674724-1.46248519.31111005-2.25672384.51647245-2.78528345.27210965-.70016136.59721221-1.19984281 1.12208018-1.72471077.52486797-.52492752 1.02460896-.84997053 1.72471077-1.12208019.5285596-.20542194 1.32285781-.44978475 2.78528346-.51653199 1.58174903-.07216563 2.05612483-.08740854 6.06131693-.08740854"/><path d="m15.0000348 20.8421089c-3.226488 0-5.84214372-2.6156557-5.84214372-5.8421437 0-3.2264879 2.61565572-5.84207412 5.84214372-5.84207412s5.8421437 2.61558622 5.8421437 5.84207412c0 3.226488-2.6156557 5.8421437-5.8421437 5.8421437m0-14.8421089c-4.9705599 0-9.0000348 4.0294053-9.0000348 8.9999652 0 4.9706295 4.0294749 9.0000348 9.0000348 9.0000348s8.9999652-4.0294053 8.9999652-9.0000348c0-4.9705599-4.0294053-8.9999652-8.9999652-8.9999652"/><path d="m25.5 6c0 .82844856-.6715404 1.5-1.4999752 1.5-.8284349 0-1.5000248-.67155144-1.5000248-1.5s.6715899-1.5 1.5000248-1.5c.8284348 0 1.4999752.67155144 1.4999752 1.5"/></g></svg>