<svg height="33" viewBox="0 0 33 33" width="33" xmlns="http://www.w3.org/2000/svg"><g fill="none"><path d="m10.5 3h21v30h-21z" fill="#fff"/><path d="m1.90407053 0c-1.05169843 0-1.90407053.81530939-1.90407053 1.82127802v29.35732028c0 1.005845.8523721 1.8214017 1.90407053 1.8214017h15.02353177v-12.7793627h-4.4960883v-4.9803855h4.4960883v-3.6728489c0-4.26226043 2.7215412-6.58318439 6.6966924-6.58318439 1.9041998 0 3.5406921.13551398 4.0175501.19609959v4.45440342l-2.7569598.00123644c-2.1618245 0-2.5805132.98259994-2.5805132 2.42453774v3.1797561h5.1559851l-.671272 4.9803855h-4.4847131v12.7793627h8.7915576c1.0515693 0 1.9040706-.8155567 1.9040706-1.8214017v-29.35732028c0-1.00596863-.8525013-1.82127802-1.9040706-1.82127802z" fill="#3c5b9b"/></g></svg>