<svg height="23" viewBox="0 0 32 23" width="32" xmlns="http://www.w3.org/2000/svg"><g fill="none"><path d="m30.8417752 3.51341129c-.36225-1.3830242-1.4294914-2.47209677-2.7850653-2.84171371-2.456284-.67173387-12.3066562-.67173387-12.3066562-.67173387s-9.85037217 0-12.30683523.67173387c-1.35539489.36961694-2.42281535 1.45868951-2.78506534 2.84171371-.65809944 2.50657258-.65809944 7.73655241-.65809944 7.73655241s0 5.2297984.65809944 7.7367339c.36224999 1.3828427 1.42967045 2.4719152 2.78506534 2.8417137 2.45646306.6715524 12.30683523.6715524 12.30683523.6715524s9.8503722 0 12.3066562-.6715524c1.3555739-.3697985 2.4228153-1.458871 2.7850653-2.8417137.6582785-2.5069355.6582785-7.7367339.6582785-7.7367339s0-5.22997983-.6582785-7.73655241" fill="#f00"/><path d="m12 15 7.5-4.499828-7.5-4.500172z" fill="#fff"/></g></svg>