<svg height="23" viewBox="0 0 27 23" width="27" xmlns="http://www.w3.org/2000/svg"><path d="m8.48139255 22.5c10.18847535 0 15.76350535-8.6589567 15.76350535-16.15526576 0-.24360235 0-.48720471-.0108043-.73080707 1.0804322-.79724409 2.0204082-1.80487205 2.7659064-2.94537402-.9939977.45398622-2.0636254.75295276-3.1872749.8968996 1.1452581-.69758858 2.0204081-1.81594488 2.4417767-3.14468503-1.0696278.65329724-2.2581033 1.1183563-3.5222089 1.37303149-1.0156062-1.10728345-2.4525811-1.79379921-4.0408163-1.79379921-3.0576231 0-5.542617 2.54675197-5.542617 5.68036417 0 .44291339.0540216.87475394.1404561 1.29552166-4.60264103-.23252953-8.68667464-2.50246064-11.42016804-5.93503937-.47539015.84153543-.7454982 1.81594488-.7454982 2.85679134 0 1.97096455.98319327 3.7093996 2.46338535 4.72810039-.90756302-.0332185-1.76110444-.2878937-2.50660263-.70866142v.07750985c0 2.74606298 1.91236494 5.04921248 4.44057622 5.56963588-.46458583.1328739-.9507803.199311-1.45858344.199311-.3565426 0-.7022809-.0332185-1.03721488-.0996555.70228092 2.2588582 2.75510205 3.8976378 5.1752701 3.941929-1.90156062 1.5280512-4.28931571 2.4360238-6.88235293 2.4360238-.44297719 0-.88595437-.0221457-1.31812725-.07751 2.44177671 1.5944883 5.35894357 2.5356792 8.48139255 2.5356792" fill="#1da1f2"/></svg>