<svg height="33" viewBox="0 0 33 33" width="33" xmlns="http://www.w3.org/2000/svg"><g fill="none"><path d="m4.5 3h27v30h-27z" fill="#fff"/><path d="m23.0103624 11.98065c5.1250429 0 6.0721236 3.2605833 6.0721236 7.502v8.6368333h-5.061525v-7.6578333c0-1.8269166-.0322331-4.1763333-2.6298317-4.1763333-2.6345716 0-3.0355878 1.991-3.0355878 4.04525v7.7889166h-5.0558368v-15.7483333h4.8520107v2.15325h.0692061c.6749964-1.2384167 2.3264623-2.54375 4.7894409-2.54375zm-12.8865538.3905v15.7483333h-5.06721326v-15.7483333zm-2.53218458-2.1514167c-1.62586918 0-2.93699283-1.27141664-2.93699283-2.83891664 0-1.56658332 1.31112365-2.838 2.93699283-2.838 1.61923298 0 2.93414878 1.27141668 2.93414878 2.838 0 1.5675-1.3149158 2.83891664-2.93414878 2.83891664zm-5.07384946-10.21991663c-1.38886202 0-2.51796417 1.06516666-2.51796417 2.37966666v28.23974997c0 1.3135833 1.12910215 2.3805834 2.51796417 2.3805834h27.95762504c1.3917062 0 2.5246004-1.0670001 2.5246004-2.3805834v-28.23974997c0-1.3145-1.1328942-2.37966666-2.5246004-2.37966666z" fill="#0077b6"/></g></svg>