<?xml version="1.0" encoding="UTF-8"?>
<svg width="65px" height="65px" viewBox="0 0 65 65" version="1.1" xmlns="http://www.w3.org/2000/svg" xmlns:xlink="http://www.w3.org/1999/xlink">
    <title>Illustration / manage-foreign-exchange-risk</title>
    <g id="Page-1" stroke="none" stroke-width="1" fill="none" fill-rule="evenodd" stroke-linecap="round" stroke-linejoin="round">
        <g id="Illustration-/-manage-foreign-exchange-risk" transform="translate(1.000000, 1.000000)" stroke-width="1.5">
            <path d="M11.2838783,52.072786 C11.2838783,54.3961848 13.1673651,56.2796717 15.4907639,56.2796717 C17.8141627,56.2796717 19.6976496,54.3961848 19.6976496,52.072786 C19.6976496,49.7493872 17.8141627,47.8659004 15.4907639,47.8659004 C13.1673651,47.8659004 11.2838783,45.9824135 11.2838783,43.6590147 C11.2838783,41.3356159 13.1673651,39.4521291 15.4907639,39.4521291 C17.8141627,39.4521291 19.6976496,41.3356159 19.6976496,43.6590147" id="Path" stroke="#7A99AC"></path>
            <line x1="15.4907668" y1="36.228702" x2="15.4907668" y2="39.3793511" id="Path" stroke="#7A99AC"></line>
            <line x1="15.4119735" y1="56.3270352" x2="15.4119735" y2="59.4776815" id="Path" stroke="#7A99AC"></line>
            <line x1="37.6782195" y1="13.9571457" x2="53.4775952" y2="13.9571457" id="Path" stroke="#7A99AC"></line>
            <line x1="37.6782195" y1="18.170311" x2="53.4775952" y2="18.170311" id="Path" stroke="#7A99AC"></line>
            <path d="M56.5872885,8.73646623 C52.6458518,5.63869866 46.9856078,6.0897673 43.5845269,9.77266504 C40.1834459,13.4555628 40.1834459,19.1337513 43.5845269,22.816649 C46.9856078,26.4995468 52.6458518,26.9506154 56.5872885,23.8528479" id="Path" stroke="#7A99AC"></path>
            <path d="M59.5014813,47.6662891 C59.6039804,53.568709 54.7186889,58.4369013 48.816269,58.5403726 C42.9148213,58.642289 38.2334649,53.940621 38.1310567,48.0382011 C38.0285576,42.137629 42.9148213,37.2679784 48.816269,37.166062 C54.7177167,37.0625906 59.3990788,41.765717 59.5014813,47.6662891 Z" id="Path" stroke="#007DBA"></path>
            <line x1="48.816269" y1="49.3086123" x2="48.816269" y2="42.5076959" id="Path" stroke="#007DBA"></line>
            <path d="M49.1598602,53.0526617 C49.0687406,53.1437813 48.9451316,53.1949344 48.816269,53.1948498 C48.6874064,53.1949344 48.5637974,53.1437813 48.4726778,53.0526617 C48.3815581,52.9615421 48.3304051,52.8379331 48.3304897,52.7090705 C48.3304051,52.5802079 48.3815581,52.4565989 48.4726778,52.3654793 C48.5637974,52.2743596 48.6874064,52.2232066 48.816269,52.2232911 C48.9451316,52.2232066 49.0687406,52.2743596 49.1598602,52.3654793 C49.2509798,52.4565989 49.3021329,52.5802079 49.3020483,52.7090705 C49.3021329,52.8379331 49.2509798,52.9615421 49.1598602,53.0526617 Z" id="Path" stroke="#007DBA"></path>
            <path d="M20.8209784,11.2310424 C20.8209784,11.2310424 20.7530787,7.02119459 16.0000217,7.02119459 C11.2469648,7.02119459 11.2469676,10.9594379 11.2469676,11.2310424 C11.2469676,11.502647 12.1975921,16.1877985 12.4012799,17.070509 C12.6049677,17.9532196 13.2160907,22.9377155 8.19143207,25.57198 C10.6104434,24.1891694 13.5139504,23.935937 16.135824,24.8791015 C20.6851761,26.4408206 22.7901014,24.4716976 22.7901014,24.4716976" id="Path" stroke="#7A99AC"></path>
            <line x1="8.46303378" y1="16.2965859" x2="17.2901363" y2="16.2965859" id="Path" stroke="#7A99AC"></line>
            <line x1="31.4432317" y1="3.55271368e-15" x2="31.4432317" y2="62.8864634" id="Path" stroke="#7A99AC"></line>
            <line x1="-4.97379915e-14" y1="31.4432317" x2="62.8864634" y2="31.4432317" id="Path" stroke="#7A99AC"></line>
        </g>
    </g>
</svg>