<?xml version="1.0" encoding="UTF-8"?>
<svg width="61px" height="65px" viewBox="0 0 61 65" version="1.1" xmlns="http://www.w3.org/2000/svg" xmlns:xlink="http://www.w3.org/1999/xlink">
    <title>smart-choice-investment-insurance-tailored</title>
    <g id="Page-1" stroke="none" stroke-width="1" fill="none" fill-rule="evenodd" stroke-linecap="round" stroke-linejoin="round">
        <g id="smart-choice-investment-insurance-tailored" transform="translate(1.000000, 1.000000)" stroke-width="1.5">
            <rect id="Rectangle" stroke="#007DBA" x="1.24344979e-14" y="43.2346087" width="11.6555063" height="19.8305503"></rect>
            <path d="M11.6555063,60.2322221 L55.9444008,60.2322221 C62.0532703,60.2322221 57.6825001,51.7334168 39.3373476,51.7334168 L18.9401984,51.7334168" id="Path" stroke="#007DBA"></path>
            <path d="M11.6555063,46.0675429 L21.8540618,46.0675429 C28.7089559,46.0675429 32.0526174,50.3169455 33.5095681,51.733414" id="Path" stroke="#007DBA"></path>
            <path d="M29.2282638,34.5528133 C29.2282638,36.9755776 30.7294001,39.159781 33.0316951,40.0869327 C35.3339901,41.0140845 37.9840463,40.501598 39.7461466,38.7884449 C41.5082469,37.0752919 42.0353758,34.4988484 41.081734,32.260506 C40.1280922,30.0221636 37.8814831,28.5627256 35.3894969,28.5627256 C32.8975107,28.5627256 30.6509016,27.1032876 29.6972598,24.8649452 C28.743618,22.6266029 29.2707469,20.0501594 31.0328472,18.3370063 C32.7949475,16.6238532 35.4450037,16.1113667 37.7472987,17.0385185 C40.0495937,17.9656703 41.55073,20.1498736 41.55073,22.5726379" id="Path" stroke="#007DBA"></path>
            <line x1="35.3065643" y1="11.8509814" x2="35.3065643" y2="16.3371135" id="Path" stroke="#007DBA"></line>
            <line x1="35.2741023" y1="40.6103369" x2="35.2741023" y2="45.0964718" id="Path" stroke="#007DBA"></line>
            <path d="M13.9436055,39.4050964 C13.3905313,37.4306965 13.1059615,35.3943466 13.0971637,33.3480536 C13.0971637,21.842475 22.6907665,2.13162821e-14 34.5250759,2.13162821e-14 L35.9665314,2.13162821e-14 C45.022613,2.13162821e-14 52.7665576,12.7907738 55.90341,23.9521642 C55.90341,23.9521642 57.3944554,29.501053 57.3944554,33.3480536 C57.3944554,38.4378542 55.5170135,43.6776025 52.3986875,47.9385768" id="Path" stroke="#7A99AC"></path>
        </g>
    </g>
</svg>