<?xml version="1.0" encoding="UTF-8"?>
<svg width="51px" height="66px" viewBox="0 0 51 66" version="1.1" xmlns="http://www.w3.org/2000/svg" xmlns:xlink="http://www.w3.org/1999/xlink">
    <title>term-deposits</title>
    <g id="Page-1" stroke="none" stroke-width="1" fill="none" fill-rule="evenodd" stroke-linecap="round" stroke-linejoin="round">
        <g id="term-deposits" transform="translate(1.000000, 1.000000)" stroke-width="1.5">
            <ellipse id="Oval" stroke="#007DBA" cx="38.0647816" cy="28.164411" rx="10.9501426" ry="10.6280796"></ellipse>
            <ellipse id="Oval" stroke="#7A99AC" cx="29.5653852" cy="48.7626415" rx="14.3655443" ry="3.49208331"></ellipse>
            <path d="M15.3562715,59.8715152 C15.3562715,61.7693866 21.7177829,63.3635986 29.7218158,63.3635986 C37.7258486,63.3635986 44.08736,61.7693866 44.08736,59.8715152" id="Path" stroke="#7A99AC"></path>
            <path d="M15.3562715,54.3297309 C15.3562715,56.2276022 21.7177829,57.8218142 29.7218158,57.8218142 C37.7258486,57.8218142 44.08736,56.2276022 44.08736,54.3297309" id="Path" stroke="#7A99AC"></path>
            <line x1="15.3562715" y1="48.7626415" x2="15.3562715" y2="59.8715152" id="Path" stroke="#7A99AC"></line>
            <line x1="43.9309294" y1="48.7626415" x2="43.9309294" y2="59.8715152" id="Path" stroke="#7A99AC"></line>
            <path d="M23.3603043,22.1418326 C20.9095581,21.6610385 17.8070177,21.3573791 14.3655443,21.3573791 C6.51794205,21.3573791 -1.0658141e-14,22.951591 -1.0658141e-14,24.8494624 C-1.0658141e-14,26.7473337 6.36151144,28.3415457 14.3655443,28.3415457 C16.9727211,28.3415457 19.4234673,28.189716 21.5613523,27.8607516" id="Path" stroke="#7A99AC"></path>
            <path d="M0.156430609,52.5836892 C0.156430609,54.4815606 6.51794205,56.0757725 14.5219749,56.0757725 C15.3301997,56.0757725 14.9912667,56.0757725 15.6430609,56.0757725" id="Path" stroke="#7A99AC"></path>
            <path d="M0.156430609,47.0419048 C0.156430609,48.9397762 6.51794205,50.5339881 14.5219749,50.5339881 C15.3301997,50.5339881 14.5219749,50.5339881 15.3301997,50.5339881" id="Path" stroke="#7A99AC"></path>
            <path d="M0.156430609,35.7812014 C0.156430609,37.6790728 6.51794205,39.2732847 14.5219749,39.2732847 C18.6152425,39.2732847 22.3695771,38.7924906 24.9767539,38.1598669" id="Path" stroke="#7A99AC"></path>
            <path d="M0.156430609,30.2141121 C0.156430609,32.1119835 6.51794205,33.7061954 14.5219749,33.7061954 C17.4680847,33.7061954 20.0752615,33.5543657 22.3695771,33.0735716" id="Path" stroke="#7A99AC"></path>
            <line x1="0.156430609" y1="25.0012921" x2="0.156430609" y2="52.5836892" id="Path" stroke="#7A99AC"></line>
            <path d="M0.156430609,41.3229858 C0.156430609,43.2208572 6.51794205,44.8150691 14.5219749,44.8150691 C22.5260077,44.8150691 28.8875192,43.2208572 28.8875192,41.3229858 L28.8875192,45.1187285" id="Path" stroke="#7A99AC"></path>
            <polyline id="Path" stroke="#007DBA" points="37.4129874 23.2552504 37.4129874 28.164411 43.1227046 33.402536"></polyline>
            <ellipse id="Oval" stroke="#007DBA" cx="11.2369321" cy="3.13781399" rx="2.7896792" ry="2.70762981"></ellipse>
            <ellipse id="Oval" stroke="#007DBA" cx="20.362051" cy="12.019852" rx="2.7896792" ry="2.70762981"></ellipse>
            <line x1="23.2560172" y1="1.77635684e-15" x2="8.26475052" y2="14.5503471" id="Path" stroke="#007DBA"></line>
        </g>
    </g>
</svg>